<?xml version="1.0" encoding="UTF-8"?><svg xmlns="http://www.w3.org/2000/svg" viewBox="0 0 1024 1024"><defs><style>.cls-1{fill:#262324;}.cls-1,.cls-2{stroke-width:0px;}.cls-3{stroke:#231f20;}.cls-3,.cls-4{fill:none;stroke-miterlimit:10;}.cls-4{stroke:#4d4d4f;stroke-width:2px;}.cls-2{fill:#231f20;}</style></defs><g id="Layer_1"><path class="cls-2" d="M943.13,512c0-26.01,13.62-52.88,9.28-77.65s-26.52-46.08-35.17-69.84c-8.8-24.18-5.23-54.12-17.95-76.11s-40.62-34.01-57.01-53.52c-16.44-19.57-23.29-48.96-42.86-65.41-19.52-16.39-49.63-18.07-71.83-30.91-21.99-12.72-38.44-38.03-62.62-46.84-23.76-8.65-52.6.09-78.07-4.37-24.77-4.34-48.88-22.48-74.89-22.48s-50.12,18.14-74.89,22.48c-25.48,4.46-54.31-4.28-78.07,4.37-24.18,8.8-40.63,34.12-62.62,46.84s-52.31,14.52-71.83,30.91c-19.57,16.44-26.42,45.83-42.86,65.41-16.39,19.52-44.17,31.33-57.01,53.52s-9.15,51.92-17.95,76.11-30.71,44.37-35.17,69.84c-4.34,24.77,9.28,51.64,9.28,77.65s-13.62,52.88-9.28,77.65c4.46,25.48,26.52,46.08,35.17,69.84,8.8,24.18,5.23,54.12,17.95,76.11,12.84,22.19,40.62,34.01,57.01,53.52,16.44,19.57,23.29,48.96,42.86,65.41,19.52,16.39,49.63,18.07,71.83,30.91,21.99,12.72,38.44,38.03,62.62,46.84,23.76,8.65,52.6-.09,78.07,4.37,24.77,4.34,48.88,22.48,74.89,22.48s50.12-18.14,74.89-22.48,54.31,4.28,78.07-4.37c24.18-8.8,40.63-34.12,62.62-46.84s52.31-14.52,71.83-30.91c19.57-16.44,26.42-45.83,42.86-65.41,16.39-19.52,44.17-31.33,57.01-53.52,12.72-21.99,9.15-51.92,17.95-76.11,8.65-23.76,30.71-44.37,35.17-69.84,4.34-24.77-9.28-51.64-9.28-77.65Z"/><path class="cls-4" d="M943.13,512c0-26.01,13.62-52.88,9.28-77.65s-26.52-46.08-35.17-69.84c-8.8-24.18-5.23-54.12-17.95-76.11s-40.62-34.01-57.01-53.52c-16.44-19.57-23.29-48.96-42.86-65.41-19.52-16.39-49.63-18.07-71.83-30.91-21.99-12.72-38.44-38.03-62.62-46.84-23.76-8.65-52.6.09-78.07-4.37-24.77-4.34-48.88-22.48-74.89-22.48s-50.12,18.14-74.89,22.48c-25.48,4.46-54.31-4.28-78.07,4.37-24.18,8.8-40.63,34.12-62.62,46.84s-52.31,14.52-71.83,30.91c-19.57,16.44-26.42,45.83-42.86,65.41-16.39,19.52-44.17,31.33-57.01,53.52s-9.15,51.92-17.95,76.11-30.71,44.37-35.17,69.84c-4.34,24.77,9.28,51.64,9.28,77.65s-13.62,52.88-9.28,77.65c4.46,25.48,26.52,46.08,35.17,69.84,8.8,24.18,5.23,54.12,17.95,76.11,12.84,22.19,40.62,34.01,57.01,53.52,16.44,19.57,23.29,48.96,42.86,65.41,19.52,16.39,49.63,18.07,71.83,30.91,21.99,12.72,38.44,38.03,62.62,46.84,23.76,8.65,52.6-.09,78.07,4.37,24.77,4.34,48.88,22.48,74.89,22.48s50.12-18.14,74.89-22.48,54.31,4.28,78.07-4.37c24.18-8.8,40.63-34.12,62.62-46.84s52.31-14.52,71.83-30.91c19.57-16.44,26.42-45.83,42.86-65.41,16.39-19.52,44.17-31.33,57.01-53.52,12.72-21.99,9.15-51.92,17.95-76.11,8.65-23.76,30.71-44.37,35.17-69.84,4.34-24.77-9.28-51.64-9.28-77.65Z"/></g><g id="Layer_2"><circle class="cls-1" cx="512" cy="518.76" r="372.53"/><circle class="cls-3" cx="512" cy="518.76" r="25.02"/><circle class="cls-3" cx="512" cy="518.76" r="25.02"/><circle class="cls-3" cx="512" cy="518.76" r="41.52"/><circle class="cls-3" cx="512" cy="518.76" r="55.35"/><circle class="cls-3" cx="512" cy="518.76" r="67.91"/><circle class="cls-3" cx="512" cy="518.76" r="82.67"/><circle class="cls-3" cx="512" cy="518.76" r="97.02"/><circle class="cls-3" cx="512" cy="518.76" r="112.05"/><circle class="cls-3" cx="512" cy="518.76" r="126.48"/><circle class="cls-3" cx="512" cy="518.76" r="12.35"/><circle class="cls-3" cx="512" cy="518.76" r="143.18"/><circle class="cls-3" cx="512" cy="518.76" r="157.52"/><circle class="cls-3" cx="512" cy="518.76" r="174.79"/><circle class="cls-3" cx="512" cy="518.76" r="189.49"/><circle class="cls-3" cx="512" cy="518.76" r="202.95"/><circle class="cls-3" cx="512" cy="518.76" r="218.2"/><circle class="cls-3" cx="512" cy="518.76" r="231.94"/><circle class="cls-3" cx="512" cy="518.76" r="247.56"/><circle class="cls-3" cx="512" cy="518.76" r="263.42"/><circle class="cls-3" cx="512" cy="518.76" r="281.9"/><circle class="cls-3" cx="512" cy="518.76" r="300.3"/><circle class="cls-3" cx="512" cy="518.76" r="322.66"/><circle class="cls-3" cx="512" cy="518.76" r="343.59"/></g></svg>