<?xml version="1.0" encoding="UTF-8"?><svg id="Layer_8" xmlns="http://www.w3.org/2000/svg" viewBox="0 0 2043.93 1000"><defs><style>.cls-1{fill:#010101;stroke-width:0px;}</style></defs><ellipse class="cls-1" cx="1037.22" cy="811.49" rx="199.78" ry="116.97" transform="translate(-217.51 411.5) rotate(-20.36)"/><rect class="cls-1" x="1201.69" y="107.38" width="26.65" height="656.7"/><path class="cls-1" d="M1209.82,34.31c7.41,23.16,12.89,46.46,17.93,69.79l3.57,17.51,1.68,8.73,1.78,7.85c2.66,10.36,6.13,20.35,10.45,29.86,8.66,19,20.3,36.24,34.61,50.96,7.18,7.31,14.76,14.24,23.03,20.33l6.38,4.73,7.19,5.18,14.37,10.36,28.37,21.23,14,10.87,3.52,2.74,3.88,3.15c2.59,2.09,5.17,4.19,7.57,6.52,19.79,17.82,36,39.78,46.68,63.99,10.73,24.16,16.03,50.56,14.75,76.21-.7,12.3-1.81,23.92-3.09,35.94-1.24,11.93-2.88,23.88-4.94,35.87-3.7-11.58-6.99-23.19-9.88-34.83-1.52-5.81-2.84-11.64-4.23-17.47-1.39-5.73-2.53-11.87-3.95-17.28-5.09-21.47-13.92-41.21-25.58-58.62-11.69-17.38-25.89-32.71-42.36-45.18-2-1.62-4.16-3.05-6.23-4.59l-3.12-2.28-3.61-2.51-14.56-10.1-28.75-20.72-14.19-10.61-7.09-5.31c-1.13-.83-2.44-1.85-3.77-2.9l-3.91-3.14c-10.24-8.57-19.92-17.9-28.37-28.31-8.46-10.37-15.98-21.55-21.99-33.5-6.16-11.86-10.89-24.41-14.25-37.24-3.32-12.83-5.23-25.98-5.54-39.05l.05-9.78c.1-3.04.24-5.96.43-8.95l1.1-17.84c1.76-23.8,3.94-47.64,8.06-71.61Z"/></svg>