<?xml version="1.0" encoding="UTF-8"?><svg id="Layer_9" xmlns="http://www.w3.org/2000/svg" viewBox="0 0 2043.93 1000"><defs><style>.cls-1{fill:#010101;stroke-width:0px;}</style></defs><path class="cls-1" d="M1147.93,716.57c23.2,8.55,42.01,20.12,56.44,34.72,14.42,14.6,22.99,31.77,25.69,51.5,2.72,19.85-1.02,38.74-11.22,56.65-10.2,17.91-25.57,34.08-46.09,48.5-19.85,14.21-43.51,26.31-70.97,36.29-27.46,9.98-57.19,17.17-89.16,21.55-34.05,4.67-65.96,5.72-95.72,3.15-29.77-2.56-55.8-8.24-78.1-17.03-22.27-8.55-40.44-20.16-54.52-34.81-14.08-14.65-22.39-31.25-24.93-49.81-2.78-20.32.94-39.29,11.19-56.91,10.24-17.62,25.49-33.74,45.76-48.37,20.04-14.47,43.98-26.73,71.78-36.76,27.81-10.03,57.35-17.19,88.64-21.48,32.44-4.45,63.46-5.52,93.08-3.24,29.61,2.29,55.66,7.63,78.14,16.04ZM1143.56,890.55c12.33-12.49,20.58-25.62,24.76-39.37,4.18-13.75,4.87-28.42,2.1-43.99-2.85-16.01-9.06-30.06-18.63-42.16-9.57-12.1-22.12-21.62-37.65-28.58-15.52-6.85-34.2-11.01-56.03-12.49-21.84-1.48-46.23.18-73.19,4.99-30.23,5.39-55.39,12.99-75.47,22.79-20.09,9.8-35.9,20.94-47.46,33.41-10.88,11.9-18.24,24.86-22.11,38.9-3.87,14.04-4.53,28.19-1.98,42.44,2.82,15.79,8.63,29.46,17.45,41.01,8.82,11.55,21.16,21,37.03,28.36,15.32,7.22,33.8,11.71,55.42,13.45,21.62,1.75,46.8.06,75.52-5.07,26.95-4.81,50.77-11.88,71.46-21.23,20.69-9.35,36.95-20.17,48.8-32.46Z"/><rect class="cls-1" x="833.77" y="402.36" width="774.14" height="29.17" transform="translate(783.7 1630.7) rotate(-89.05)"/></svg>