<?xml version="1.0" encoding="UTF-8"?><svg xmlns="http://www.w3.org/2000/svg" viewBox="0 0 1024 1024"><defs><style>.cls-1{fill:#262324;}.cls-1,.cls-2{stroke-width:0px;}.cls-3{stroke:#231f20;}.cls-3,.cls-4{fill:none;stroke-miterlimit:10;}.cls-4{stroke:#4d4d4f;stroke-width:2px;}.cls-2{fill:#231f20;}</style></defs><g id="Layer_1"><path class="cls-2" d="M939.13,512c0-4.91,23.91-10.2,23.75-15.07s-24.37-8.61-24.69-13.48,23.19-11.75,22.71-16.6-24.89-6.97-25.53-11.81,22.35-13.27,21.55-18.08-25.3-5.29-26.26-10.07,21.41-14.74,20.29-19.49-25.59-3.58-26.88-8.29,20.38-16.14,18.93-20.81-25.78-1.84-27.38-6.46,19.24-17.48,17.49-22.03-25.84-.1-27.75-4.6,18.02-18.73,15.97-23.16-25.79,1.63-28-2.73,16.73-19.89,14.38-24.18c-2.36-4.29-25.62,3.36-28.12-.84s15.36-20.97,12.73-25.09-25.34,5.06-28.11,1.04,13.93-21.94,11.02-25.88-24.95,6.74-27.98,2.91,12.44-22.82,9.28-26.56c-3.16-3.74-24.44,8.39-27.72,4.76s10.9-23.6,7.49-27.11-23.83,9.99-27.35,6.59,9.31-24.27,5.68-27.55-23.11,11.55-26.85,8.39,7.67-24.83,3.83-27.87-22.29,13.06-26.23,10.16,6.01-25.29,1.97-28.06-21.37,14.52-25.5,11.88,4.31-25.63.1-28.13-20.35,15.92-24.65,13.56,2.58-25.86-1.79-28.07-19.24,17.24-23.68,15.18.85-25.98-3.66-27.89-18.04,18.5-22.61,16.74-.9-25.97-5.53-27.58-16.75,19.67-21.43,18.22-2.65-25.85-7.38-27.15-15.39,20.75-20.16,19.62-4.38-25.62-9.19-26.59-13.95,21.74-18.79,20.93-6.08-25.26-10.95-25.91-12.47,22.63-17.35,22.14-7.75-24.8-12.65-25.12-10.94,23.4-15.84,23.24-9.37-24.23-14.28-24.23-9.41,24.07-14.28,24.23-10.98-23.56-15.84-23.24-7.8,24.64-12.65,25.12-12.52-22.79-17.35-22.14-6.14,25.11-10.95,25.91-14.01-21.9-18.79-20.93-4.44,25.46-9.19,26.59-15.45-20.91-20.16-19.62-2.71,25.7-7.38,27.15-16.82-19.82-21.43-18.22-.97,25.82-5.53,27.58-18.11-18.64-22.61-16.73.77,25.83-3.66,27.89-19.32-17.39-23.68-15.18,2.5,25.72-1.78,28.07-20.44-16.05-24.65-13.56,4.22,25.49.1,28.13-21.47-14.65-25.5-11.88,5.91,25.16,1.97,28.06-22.4-13.19-26.23-10.16,7.57,24.71,3.84,27.87-23.22-11.67-26.85-8.39,9.19,24.15,5.68,27.55-23.95-10.11-27.35-6.59,10.78,23.48,7.49,27.11-24.56-8.49-27.72-4.76,12.31,22.72,9.28,26.55-25.07-6.84-27.98-2.91,13.8,21.85,11.03,25.88-25.47-5.16-28.11-1.04,15.23,20.88,12.73,25.09-25.76-3.45-28.12.84,16.59,19.81,14.38,24.18-25.93-1.72-28,2.73,17.88,18.65,15.97,23.16-25.99.03-27.75,4.6,19.09,17.4,17.49,22.03-25.93,1.77-27.38,6.46,20.22,16.08,18.93,20.81-25.75,3.51-26.88,8.29,21.26,14.68,20.29,19.49-25.45,5.23-26.26,10.07,22.2,13.22,21.55,18.08-25.05,6.92-25.53,11.81,23.03,11.71,22.71,16.6-24.53,8.57-24.69,13.48,23.75,10.16,23.75,15.07-23.91,10.2-23.75,15.07,24.37,8.61,24.69,13.48-23.19,11.75-22.71,16.6,24.89,6.97,25.53,11.81-22.35,13.27-21.55,18.08,25.3,5.29,26.26,10.07-21.41,14.74-20.29,19.49,25.59,3.58,26.88,8.29-20.38,16.14-18.93,20.81,25.78,1.84,27.38,6.46-19.24,17.48-17.49,22.03,25.84.1,27.75,4.6-18.02,18.73-15.97,23.16,25.79-1.63,28,2.73-16.73,19.89-14.38,24.18,25.62-3.36,28.12.84-15.36,20.97-12.73,25.09,25.34-5.06,28.11-1.04-13.93,21.94-11.02,25.88,24.95-6.74,27.98-2.91-12.44,22.82-9.28,26.56,24.44-8.39,27.72-4.76-10.9,23.6-7.49,27.11,23.83-9.99,27.35-6.59c3.52,3.4-9.31,24.27-5.68,27.55s23.11-11.55,26.85-8.39-7.67,24.83-3.83,27.87,22.29-13.06,26.23-10.16-6.01,25.29-1.97,28.06,21.37-14.52,25.5-11.88-4.31,25.63-.1,28.13,20.35-15.92,24.65-13.56-2.58,25.86,1.79,28.07,19.24-17.24,23.68-15.18-.85,25.98,3.66,27.89,18.04-18.5,22.61-16.74.9,25.97,5.53,27.58,16.75-19.67,21.43-18.22,2.65,25.85,7.38,27.15c4.71,1.29,15.39-20.75,20.16-19.62s4.38,25.62,9.19,26.59,13.95-21.74,18.79-20.93,6.08,25.26,10.95,25.91,12.47-22.63,17.35-22.14,7.75,24.8,12.65,25.12,10.94-23.4,15.84-23.24,9.37,24.23,14.28,24.23,9.41-24.07,14.28-24.23,10.98,23.56,15.84,23.24,7.8-24.64,12.65-25.12,12.52,22.79,17.35,22.14,6.14-25.11,10.95-25.91,14.01,21.9,18.79,20.93,4.44-25.46,9.19-26.59,15.45,20.91,20.16,19.62,2.71-25.7,7.38-27.15,16.82,19.82,21.43,18.22.97-25.82,5.53-27.58,18.11,18.64,22.61,16.73-.77-25.83,3.66-27.89,19.32,17.39,23.68,15.18-2.5-25.72,1.78-28.07,20.44,16.05,24.65,13.56-4.22-25.49-.1-28.13,21.47,14.65,25.5,11.88-5.91-25.16-1.97-28.06,22.4,13.19,26.23,10.16-7.57-24.71-3.84-27.87,23.22,11.67,26.85,8.39-9.19-24.15-5.68-27.55c3.52-3.4,23.95,10.11,27.35,6.59s-10.78-23.48-7.49-27.11c3.28-3.63,24.56,8.49,27.72,4.76s-12.31-22.72-9.28-26.55c3.03-3.84,25.07,6.84,27.98,2.91s-13.8-21.85-11.03-25.88,25.47,5.16,28.11,1.04c2.63-4.12-15.23-20.88-12.73-25.09s25.76,3.45,28.12-.84-16.59-19.81-14.38-24.18,25.93,1.72,28-2.73-17.88-18.65-15.97-23.16,25.99-.03,27.75-4.6-19.09-17.4-17.49-22.03c1.6-4.61,25.93-1.77,27.38-6.46s-20.22-16.08-18.93-20.81c1.29-4.71,25.75-3.51,26.88-8.29s-21.26-14.68-20.29-19.49,25.45-5.23,26.26-10.07-22.2-13.22-21.55-18.08,25.05-6.92,25.53-11.81-23.03-11.71-22.71-16.6,24.53-8.57,24.69-13.48-23.75-10.16-23.75-15.07Z"/><path class="cls-4" d="M939.13,512c0-4.91,23.91-10.2,23.75-15.07s-24.37-8.61-24.69-13.48,23.19-11.75,22.71-16.6-24.89-6.97-25.53-11.81,22.35-13.27,21.55-18.08-25.3-5.29-26.26-10.07,21.41-14.74,20.29-19.49-25.59-3.58-26.88-8.29,20.38-16.14,18.93-20.81-25.78-1.84-27.38-6.46,19.24-17.48,17.49-22.03-25.84-.1-27.75-4.6,18.02-18.73,15.97-23.16-25.79,1.63-28-2.73,16.73-19.89,14.38-24.18c-2.36-4.29-25.62,3.36-28.12-.84s15.36-20.97,12.73-25.09-25.34,5.06-28.11,1.04,13.93-21.94,11.02-25.88-24.95,6.74-27.98,2.91,12.44-22.82,9.28-26.56c-3.16-3.74-24.44,8.39-27.72,4.76s10.9-23.6,7.49-27.11-23.83,9.99-27.35,6.59,9.31-24.27,5.68-27.55-23.11,11.55-26.85,8.39,7.67-24.83,3.83-27.87-22.29,13.06-26.23,10.16,6.01-25.29,1.97-28.06-21.37,14.52-25.5,11.88,4.31-25.63.1-28.13-20.35,15.92-24.65,13.56,2.58-25.86-1.79-28.07-19.24,17.24-23.68,15.18.85-25.98-3.66-27.89-18.04,18.5-22.61,16.74-.9-25.97-5.53-27.58-16.75,19.67-21.43,18.22-2.65-25.85-7.38-27.15-15.39,20.75-20.16,19.62-4.38-25.62-9.19-26.59-13.95,21.74-18.79,20.93-6.08-25.26-10.95-25.91-12.47,22.63-17.35,22.14-7.75-24.8-12.65-25.12-10.94,23.4-15.84,23.24-9.37-24.23-14.28-24.23-9.41,24.07-14.28,24.23-10.98-23.56-15.84-23.24-7.8,24.64-12.65,25.12-12.52-22.79-17.35-22.14-6.14,25.11-10.95,25.91-14.01-21.9-18.79-20.93-4.44,25.46-9.19,26.59-15.45-20.91-20.16-19.62-2.71,25.7-7.38,27.15-16.82-19.82-21.43-18.22-.97,25.82-5.53,27.58-18.11-18.64-22.61-16.73.77,25.83-3.66,27.89-19.32-17.39-23.68-15.18,2.5,25.72-1.78,28.07-20.44-16.05-24.65-13.56,4.22,25.49.1,28.13-21.47-14.65-25.5-11.88,5.91,25.16,1.97,28.06-22.4-13.19-26.23-10.16,7.57,24.71,3.84,27.87-23.22-11.67-26.85-8.39,9.19,24.15,5.68,27.55-23.95-10.11-27.35-6.59,10.78,23.48,7.49,27.11-24.56-8.49-27.72-4.76,12.31,22.72,9.28,26.55-25.07-6.84-27.98-2.91,13.8,21.85,11.03,25.88-25.47-5.16-28.11-1.04,15.23,20.88,12.73,25.09-25.76-3.45-28.12.84,16.59,19.81,14.38,24.18-25.93-1.72-28,2.73,17.88,18.65,15.97,23.16-25.99.03-27.75,4.6,19.09,17.4,17.49,22.03-25.93,1.77-27.38,6.46,20.22,16.08,18.93,20.81-25.75,3.51-26.88,8.29,21.26,14.68,20.29,19.49-25.45,5.23-26.26,10.07,22.2,13.22,21.55,18.08-25.05,6.92-25.53,11.81,23.03,11.71,22.71,16.6-24.53,8.57-24.69,13.48,23.75,10.16,23.75,15.07-23.91,10.2-23.75,15.07,24.37,8.61,24.69,13.48-23.19,11.75-22.71,16.6,24.89,6.97,25.53,11.81-22.35,13.27-21.55,18.08,25.3,5.29,26.26,10.07-21.41,14.74-20.29,19.49,25.59,3.58,26.88,8.29-20.38,16.14-18.93,20.81,25.78,1.84,27.38,6.46-19.24,17.48-17.49,22.03,25.84.1,27.75,4.6-18.02,18.73-15.97,23.16,25.79-1.63,28,2.73-16.73,19.89-14.38,24.18,25.62-3.36,28.12.84-15.36,20.97-12.73,25.09,25.34-5.06,28.11-1.04-13.93,21.94-11.02,25.88,24.95-6.74,27.98-2.91-12.44,22.82-9.28,26.56,24.44-8.39,27.72-4.76-10.9,23.6-7.49,27.11,23.83-9.99,27.35-6.59c3.52,3.4-9.31,24.27-5.68,27.55s23.11-11.55,26.85-8.39-7.67,24.83-3.83,27.87,22.29-13.06,26.23-10.16-6.01,25.29-1.97,28.06,21.37-14.52,25.5-11.88-4.31,25.63-.1,28.13,20.35-15.92,24.65-13.56-2.58,25.86,1.79,28.07,19.24-17.24,23.68-15.18-.85,25.98,3.66,27.89,18.04-18.5,22.61-16.74.9,25.97,5.53,27.58,16.75-19.67,21.43-18.22,2.65,25.85,7.38,27.15c4.71,1.29,15.39-20.75,20.16-19.62s4.38,25.62,9.19,26.59,13.95-21.74,18.79-20.93,6.08,25.26,10.95,25.91,12.47-22.63,17.35-22.14,7.75,24.8,12.65,25.12,10.94-23.4,15.84-23.24,9.37,24.23,14.28,24.23,9.41-24.07,14.28-24.23,10.98,23.56,15.84,23.24,7.8-24.64,12.65-25.12,12.52,22.79,17.35,22.14,6.14-25.11,10.95-25.91,14.01,21.9,18.79,20.93,4.44-25.46,9.19-26.59,15.45,20.91,20.16,19.62,2.71-25.7,7.38-27.15,16.82,19.82,21.43,18.22.97-25.82,5.53-27.58,18.11,18.64,22.61,16.73-.77-25.83,3.66-27.89,19.32,17.39,23.68,15.18-2.5-25.72,1.78-28.07,20.44,16.05,24.65,13.56-4.22-25.49-.1-28.13,21.47,14.65,25.5,11.88-5.91-25.16-1.97-28.06,22.4,13.19,26.23,10.16-7.57-24.71-3.84-27.87,23.22,11.67,26.85,8.39-9.19-24.15-5.68-27.55c3.52-3.4,23.95,10.11,27.35,6.59s-10.78-23.48-7.49-27.11c3.28-3.63,24.56,8.49,27.72,4.76s-12.31-22.72-9.28-26.55c3.03-3.84,25.07,6.84,27.98,2.91s-13.8-21.85-11.03-25.88,25.47,5.16,28.11,1.04c2.63-4.12-15.23-20.88-12.73-25.09s25.76,3.45,28.12-.84-16.59-19.81-14.38-24.18,25.93,1.72,28-2.73-17.88-18.65-15.97-23.16,25.99-.03,27.75-4.6-19.09-17.4-17.49-22.03c1.6-4.61,25.93-1.77,27.38-6.46s-20.22-16.08-18.93-20.81c1.29-4.71,25.75-3.51,26.88-8.29s-21.26-14.68-20.29-19.49,25.45-5.23,26.26-10.07-22.2-13.22-21.55-18.08,25.05-6.92,25.53-11.81-23.03-11.71-22.71-16.6,24.53-8.57,24.69-13.48-23.75-10.16-23.75-15.07Z"/></g><g id="Layer_2"><circle class="cls-1" cx="512" cy="518.76" r="372.53"/><circle class="cls-3" cx="512" cy="518.76" r="25.02"/><circle class="cls-3" cx="512" cy="518.76" r="25.02"/><circle class="cls-3" cx="512" cy="518.76" r="41.52"/><circle class="cls-3" cx="512" cy="518.76" r="55.35"/><circle class="cls-3" cx="512" cy="518.76" r="67.91"/><circle class="cls-3" cx="512" cy="518.76" r="82.67"/><circle class="cls-3" cx="512" cy="518.76" r="97.02"/><circle class="cls-3" cx="512" cy="518.76" r="112.05"/><circle class="cls-3" cx="512" cy="518.76" r="126.48"/><circle class="cls-3" cx="512" cy="518.76" r="12.35"/><circle class="cls-3" cx="512" cy="518.76" r="143.18"/><circle class="cls-3" cx="512" cy="518.76" r="157.52"/><circle class="cls-3" cx="512" cy="518.76" r="174.79"/><circle class="cls-3" cx="512" cy="518.76" r="189.49"/><circle class="cls-3" cx="512" cy="518.76" r="202.95"/><circle class="cls-3" cx="512" cy="518.76" r="218.2"/><circle class="cls-3" cx="512" cy="518.76" r="231.94"/><circle class="cls-3" cx="512" cy="518.76" r="247.56"/><circle class="cls-3" cx="512" cy="518.76" r="263.42"/><circle class="cls-3" cx="512" cy="518.76" r="281.9"/><circle class="cls-3" cx="512" cy="518.76" r="300.3"/><circle class="cls-3" cx="512" cy="518.76" r="322.66"/><circle class="cls-3" cx="512" cy="518.76" r="343.59"/></g></svg>